<mxfile host="app.diagrams.net" agent="Mozilla/5.0 (Windows NT 10.0; Win64; x64; rv:136.0) Gecko/20100101 Firefox/136.0" version="26.1.1">
  <diagram name="Page-1" id="UOGd8Dxsns1q6b1Wsnb5">
    <mxGraphModel dx="954" dy="774" grid="1" gridSize="10" guides="1" tooltips="1" connect="1" arrows="1" fold="1" page="1" pageScale="1" pageWidth="60" pageHeight="50" math="0" shadow="0">
      <root>
        <mxCell id="0" />
        <mxCell id="1" parent="0" />
        <mxCell id="5wC04ab9iV01woUnoRoP-43" value="" style="rounded=0;whiteSpace=wrap;html=1;strokeColor=#788AA3;fontColor=#46495D;fillColor=none;strokeWidth=3;" parent="1" vertex="1">
          <mxGeometry x="410" y="-20" width="370" height="450" as="geometry" />
        </mxCell>
        <mxCell id="5wC04ab9iV01woUnoRoP-24" value="&lt;div style=&quot;padding-top: 0px;&quot; align=&quot;center&quot;&gt;&lt;br&gt;&lt;/div&gt;" style="rounded=1;whiteSpace=wrap;html=1;fillColor=none;dashed=1;labelBackgroundColor=none;strokeColor=#788AA3;fontColor=#46495D;" parent="1" vertex="1">
          <mxGeometry x="440" y="71" width="310" height="320" as="geometry" />
        </mxCell>
        <mxCell id="5wC04ab9iV01woUnoRoP-1" value="&lt;h2&gt;TDM&lt;/h2&gt;" style="rounded=1;whiteSpace=wrap;html=1;labelBackgroundColor=none;fillColor=#B2C9AB;strokeColor=#788AA3;fontColor=#46495D;" parent="1" vertex="1">
          <mxGeometry x="850" y="111" width="70" height="240" as="geometry" />
        </mxCell>
        <mxCell id="5wC04ab9iV01woUnoRoP-2" value="" style="endArrow=classic;html=1;rounded=1;labelBackgroundColor=none;fontColor=default;strokeColor=#788AA3;entryX=0.996;entryY=0.119;entryDx=0;entryDy=0;entryPerimeter=0;exitX=0.996;exitY=0.119;exitDx=0;exitDy=0;exitPerimeter=0;" parent="1" edge="1">
          <mxGeometry width="50" height="50" relative="1" as="geometry">
            <mxPoint x="850" y="151" as="sourcePoint" />
            <mxPoint x="730" y="151" as="targetPoint" />
          </mxGeometry>
        </mxCell>
        <mxCell id="5wC04ab9iV01woUnoRoP-26" value="Center" style="edgeLabel;html=1;align=center;verticalAlign=middle;resizable=0;points=[];labelBackgroundColor=none;fontColor=#46495D;rounded=1;" parent="5wC04ab9iV01woUnoRoP-2" vertex="1" connectable="0">
          <mxGeometry x="-0.3117" y="-3" relative="1" as="geometry">
            <mxPoint y="-5" as="offset" />
          </mxGeometry>
        </mxCell>
        <mxCell id="5wC04ab9iV01woUnoRoP-3" value="" style="endArrow=classic;html=1;rounded=1;entryX=1;entryY=0.314;entryDx=0;entryDy=0;entryPerimeter=0;labelBackgroundColor=none;fontColor=default;strokeColor=#788AA3;" parent="1" target="5wC04ab9iV01woUnoRoP-7" edge="1">
          <mxGeometry width="50" height="50" relative="1" as="geometry">
            <mxPoint x="850" y="191" as="sourcePoint" />
            <mxPoint x="790" y="191" as="targetPoint" />
          </mxGeometry>
        </mxCell>
        <mxCell id="5wC04ab9iV01woUnoRoP-27" value="LF" style="edgeLabel;html=1;align=center;verticalAlign=middle;resizable=0;points=[];labelBackgroundColor=none;fontColor=#46495D;rounded=1;" parent="5wC04ab9iV01woUnoRoP-3" vertex="1" connectable="0">
          <mxGeometry x="-0.3998" y="2" relative="1" as="geometry">
            <mxPoint x="1" y="-11" as="offset" />
          </mxGeometry>
        </mxCell>
        <mxCell id="5wC04ab9iV01woUnoRoP-4" value="" style="endArrow=classic;html=1;rounded=1;entryX=1;entryY=0.5;entryDx=0;entryDy=0;labelBackgroundColor=none;fontColor=default;strokeColor=#788AA3;" parent="1" target="5wC04ab9iV01woUnoRoP-7" edge="1">
          <mxGeometry width="50" height="50" relative="1" as="geometry">
            <mxPoint x="850" y="231" as="sourcePoint" />
            <mxPoint x="790" y="231" as="targetPoint" />
          </mxGeometry>
        </mxCell>
        <mxCell id="5wC04ab9iV01woUnoRoP-28" value="LR" style="edgeLabel;html=1;align=center;verticalAlign=middle;resizable=0;points=[];labelBackgroundColor=none;fontColor=#46495D;rounded=1;" parent="5wC04ab9iV01woUnoRoP-4" vertex="1" connectable="0">
          <mxGeometry x="-0.3833" y="-2" relative="1" as="geometry">
            <mxPoint x="2" y="-7" as="offset" />
          </mxGeometry>
        </mxCell>
        <mxCell id="5wC04ab9iV01woUnoRoP-5" value="" style="endArrow=classic;html=1;rounded=1;entryX=1.004;entryY=0.688;entryDx=0;entryDy=0;entryPerimeter=0;labelBackgroundColor=none;fontColor=default;strokeColor=#788AA3;" parent="1" target="5wC04ab9iV01woUnoRoP-7" edge="1">
          <mxGeometry width="50" height="50" relative="1" as="geometry">
            <mxPoint x="850" y="271" as="sourcePoint" />
            <mxPoint x="790" y="271" as="targetPoint" />
          </mxGeometry>
        </mxCell>
        <mxCell id="5wC04ab9iV01woUnoRoP-29" value="RF" style="edgeLabel;html=1;align=center;verticalAlign=middle;resizable=0;points=[];labelBackgroundColor=none;fontColor=#46495D;rounded=1;" parent="5wC04ab9iV01woUnoRoP-5" vertex="1" connectable="0">
          <mxGeometry x="-0.4333" y="-1" relative="1" as="geometry">
            <mxPoint y="-7" as="offset" />
          </mxGeometry>
        </mxCell>
        <mxCell id="5wC04ab9iV01woUnoRoP-6" value="" style="endArrow=classic;html=1;rounded=1;entryX=0.996;entryY=0.879;entryDx=0;entryDy=0;entryPerimeter=0;labelBackgroundColor=none;fontColor=default;strokeColor=#788AA3;" parent="1" target="5wC04ab9iV01woUnoRoP-7" edge="1">
          <mxGeometry width="50" height="50" relative="1" as="geometry">
            <mxPoint x="850" y="311" as="sourcePoint" />
            <mxPoint x="790" y="311" as="targetPoint" />
          </mxGeometry>
        </mxCell>
        <mxCell id="5wC04ab9iV01woUnoRoP-30" value="&lt;div&gt;RR&lt;/div&gt;" style="edgeLabel;html=1;align=center;verticalAlign=middle;resizable=0;points=[];labelBackgroundColor=none;fontColor=#46495D;rounded=1;" parent="5wC04ab9iV01woUnoRoP-6" vertex="1" connectable="0">
          <mxGeometry x="-0.4122" y="-1" relative="1" as="geometry">
            <mxPoint x="2" y="-8" as="offset" />
          </mxGeometry>
        </mxCell>
        <mxCell id="5wC04ab9iV01woUnoRoP-7" value="&lt;h3&gt;Mixer&lt;/h3&gt;&lt;h3&gt;5ch&amp;nbsp;â†’ 3ch&lt;/h3&gt;" style="rounded=1;whiteSpace=wrap;html=1;labelBackgroundColor=none;fillColor=#B2C9AB;strokeColor=#788AA3;fontColor=#46495D;" parent="1" vertex="1">
          <mxGeometry x="610" y="126" width="120" height="210" as="geometry" />
        </mxCell>
        <mxCell id="5wC04ab9iV01woUnoRoP-9" value="" style="endArrow=classic;html=1;rounded=1;labelBackgroundColor=none;fontColor=default;strokeColor=#788AA3;" parent="1" edge="1">
          <mxGeometry width="50" height="50" relative="1" as="geometry">
            <mxPoint x="610" y="230.5" as="sourcePoint" />
            <mxPoint x="550" y="230.5" as="targetPoint" />
          </mxGeometry>
        </mxCell>
        <mxCell id="5wC04ab9iV01woUnoRoP-33" value="Ref1" style="edgeLabel;html=1;align=center;verticalAlign=middle;resizable=0;points=[];labelBackgroundColor=none;fontColor=#46495D;rounded=1;" parent="5wC04ab9iV01woUnoRoP-9" vertex="1" connectable="0">
          <mxGeometry x="0.3" y="-2" relative="1" as="geometry">
            <mxPoint x="8" y="-6" as="offset" />
          </mxGeometry>
        </mxCell>
        <mxCell id="5wC04ab9iV01woUnoRoP-10" value="" style="endArrow=classic;html=1;rounded=1;labelBackgroundColor=none;fontColor=default;strokeColor=#788AA3;" parent="1" edge="1">
          <mxGeometry width="50" height="50" relative="1" as="geometry">
            <mxPoint x="610" y="271" as="sourcePoint" />
            <mxPoint x="550" y="271" as="targetPoint" />
          </mxGeometry>
        </mxCell>
        <mxCell id="5wC04ab9iV01woUnoRoP-34" value="Ref2" style="edgeLabel;html=1;align=center;verticalAlign=middle;resizable=0;points=[];labelBackgroundColor=none;fontColor=#46495D;rounded=1;" parent="5wC04ab9iV01woUnoRoP-10" vertex="1" connectable="0">
          <mxGeometry x="-0.1333" y="-3" relative="1" as="geometry">
            <mxPoint x="-4" y="-6" as="offset" />
          </mxGeometry>
        </mxCell>
        <mxCell id="5wC04ab9iV01woUnoRoP-11" value="" style="endArrow=classic;html=1;rounded=1;labelBackgroundColor=none;fontColor=default;strokeColor=#788AA3;" parent="1" edge="1">
          <mxGeometry width="50" height="50" relative="1" as="geometry">
            <mxPoint x="610" y="191" as="sourcePoint" />
            <mxPoint x="550" y="191" as="targetPoint" />
          </mxGeometry>
        </mxCell>
        <mxCell id="5wC04ab9iV01woUnoRoP-31" value="Center" style="edgeLabel;html=1;align=center;verticalAlign=middle;resizable=0;points=[];labelBackgroundColor=none;fontColor=#46495D;rounded=1;" parent="5wC04ab9iV01woUnoRoP-11" vertex="1" connectable="0">
          <mxGeometry x="-0.1333" y="-1" relative="1" as="geometry">
            <mxPoint x="-3" y="-9" as="offset" />
          </mxGeometry>
        </mxCell>
        <mxCell id="5wC04ab9iV01woUnoRoP-12" value="&lt;h3&gt;Delay&lt;/h3&gt;" style="rounded=1;whiteSpace=wrap;html=1;labelBackgroundColor=none;fillColor=#B2C9AB;strokeColor=#788AA3;fontColor=#46495D;" parent="1" vertex="1">
          <mxGeometry x="450" y="161" width="100" height="130" as="geometry" />
        </mxCell>
        <mxCell id="5wC04ab9iV01woUnoRoP-13" value="&lt;h2&gt;TX&lt;/h2&gt;&lt;h2&gt;Matrix&lt;/h2&gt;" style="rounded=1;whiteSpace=wrap;html=1;labelBackgroundColor=none;fillColor=#B2C9AB;strokeColor=#788AA3;fontColor=#46495D;" parent="1" vertex="1">
          <mxGeometry x="280" y="41" width="80" height="380" as="geometry" />
        </mxCell>
        <mxCell id="5wC04ab9iV01woUnoRoP-23" value="" style="endArrow=classic;html=1;rounded=1;labelBackgroundColor=none;fontColor=default;strokeColor=#788AA3;entryX=1;entryY=0.395;entryDx=0;entryDy=0;entryPerimeter=0;" parent="1" target="5wC04ab9iV01woUnoRoP-13" edge="1">
          <mxGeometry width="50" height="50" relative="1" as="geometry">
            <mxPoint x="450" y="190.5" as="sourcePoint" />
            <mxPoint x="380" y="191" as="targetPoint" />
          </mxGeometry>
        </mxCell>
        <mxCell id="5wC04ab9iV01woUnoRoP-25" value="&lt;h4&gt;capiv2 module&lt;/h4&gt;" style="text;html=1;align=center;verticalAlign=middle;whiteSpace=wrap;rounded=1;labelBackgroundColor=none;fontColor=#46495D;" parent="1" vertex="1">
          <mxGeometry x="545" y="71" width="100" height="30" as="geometry" />
        </mxCell>
        <mxCell id="5wC04ab9iV01woUnoRoP-35" value="" style="endArrow=classic;html=1;rounded=1;labelBackgroundColor=none;fontColor=default;strokeColor=#788AA3;entryX=1;entryY=0.395;entryDx=0;entryDy=0;entryPerimeter=0;" parent="1" edge="1">
          <mxGeometry width="50" height="50" relative="1" as="geometry">
            <mxPoint x="450" y="231" as="sourcePoint" />
            <mxPoint x="360" y="231.5" as="targetPoint" />
          </mxGeometry>
        </mxCell>
        <mxCell id="5wC04ab9iV01woUnoRoP-36" value="" style="endArrow=classic;html=1;rounded=1;labelBackgroundColor=none;fontColor=default;strokeColor=#788AA3;entryX=1;entryY=0.395;entryDx=0;entryDy=0;entryPerimeter=0;" parent="1" edge="1">
          <mxGeometry width="50" height="50" relative="1" as="geometry">
            <mxPoint x="450" y="271" as="sourcePoint" />
            <mxPoint x="360" y="271.5" as="targetPoint" />
          </mxGeometry>
        </mxCell>
        <mxCell id="5wC04ab9iV01woUnoRoP-40" value="&lt;h1&gt;COPP / ADM&lt;/h1&gt;" style="text;html=1;align=center;verticalAlign=middle;whiteSpace=wrap;rounded=0;fontColor=#46495D;" parent="1" vertex="1">
          <mxGeometry x="495" y="5" width="190" height="30" as="geometry" />
        </mxCell>
      </root>
    </mxGraphModel>
  </diagram>
</mxfile>
